<svg width="13" height="15" viewBox="0 0 13 15" fill="none" xmlns="http://www.w3.org/2000/svg">
<path d="M7.70312 12.125H8.35938C8.52344 12.125 8.6875 11.9883 8.6875 11.7969V5.89062C8.6875 5.72656 8.52344 5.5625 8.35938 5.5625H7.70312C7.51172 5.5625 7.375 5.72656 7.375 5.89062V11.7969C7.375 11.9883 7.51172 12.125 7.70312 12.125ZM12.1875 2.9375H9.91797L8.98828 1.40625C8.76953 1.05078 8.27734 0.75 7.86719 0.75H5.10547C4.69531 0.75 4.20312 1.05078 3.98438 1.40625L3.05469 2.9375H0.8125C0.566406 2.9375 0.375 3.15625 0.375 3.375V3.8125C0.375 4.05859 0.566406 4.25 0.8125 4.25H1.25V13.4375C1.25 14.1758 1.82422 14.75 2.5625 14.75H10.4375C11.1484 14.75 11.75 14.1758 11.75 13.4375V4.25H12.1875C12.4062 4.25 12.625 4.05859 12.625 3.8125V3.375C12.625 3.15625 12.4062 2.9375 12.1875 2.9375ZM5.05078 2.14453C5.07812 2.11719 5.16016 2.0625 5.1875 2.0625H5.21484H7.78516C7.8125 2.0625 7.89453 2.11719 7.92188 2.14453L8.38672 2.9375H4.58594L5.05078 2.14453ZM10.4375 13.4375H2.5625V4.25H10.4375V13.4375ZM4.64062 12.125H5.29688C5.46094 12.125 5.625 11.9883 5.625 11.7969V5.89062C5.625 5.72656 5.46094 5.5625 5.29688 5.5625H4.64062C4.44922 5.5625 4.3125 5.72656 4.3125 5.89062V11.7969C4.3125 11.9883 4.44922 12.125 4.64062 12.125Z" fill="#4F4F4F"/>
</svg>
