<svg width="29" height="21" viewBox="0 0 29 21" fill="none" xmlns="http://www.w3.org/2000/svg">
<path d="M28.1706 3.81311C27.8601 2.57107 26.8768 1.58778 25.6865 1.27727C23.4612 0.65625 14.6634 0.65625 14.6634 0.65625C14.6634 0.65625 5.81384 0.65625 3.58851 1.27727C2.39822 1.58778 1.41493 2.57107 1.10442 3.81311C0.483398 5.98669 0.483398 10.6444 0.483398 10.6444C0.483398 10.6444 0.483398 15.2503 1.10442 17.4756C1.41493 18.7176 2.39822 19.6492 3.58851 19.9597C5.81384 20.529 14.6634 20.529 14.6634 20.529C14.6634 20.529 23.4612 20.529 25.6865 19.9597C26.8768 19.6492 27.8601 18.7176 28.1706 17.4756C28.7916 15.2503 28.7916 10.6444 28.7916 10.6444C28.7916 10.6444 28.7916 5.98669 28.1706 3.81311ZM11.7653 14.8363V6.45245L19.1141 10.6444L11.7653 14.8363Z" fill="white"/>
</svg>
